# xmcd
#
# Track frame offsets:
#	150
#	22008
#	36550
#	50535
#	65070
#	83388
#	97793
#	114890
#	130190
#	150480
#
# Disc length: 2260 seconds
#
# Revision: 1
# Processed by: cddbd v1.5.2PL0 Copyright (c) Steve Scherf et al.
# Submitted via: audiograbber 1.83.01
#
DISCID=7508d20a
DTITLE=Various Artist - Country Kicks Vol 2 (remixes)
DYEAR=1900
DGENRE=Country
TTITLE0=Brooks and Dunn - Neon Moon
TTITLE1=Clay Walker - What's It To You
TTITLE2=Martina McBride - My Baby Loves Me
TTITLE3=Toby Keith - A Little Less Talk And A Lot More Action
TTITLE4=Dwight Yoakam - Fast As You
TTITLE5=Faith Hill - Wild One
TTITLE6=Alabama - TLC ASAP
TTITLE7=Carlene Carter - I Love You 'Cuz I Want To
TTITLE8=Dolly Parton - Baby I'm Burnin'
TTITLE9=Chatahoochie - Alan Jackson
EXTD=
EXTT0=
EXTT1=
EXTT2=
EXTT3=
EXTT4=
EXTT5=
EXTT6=
EXTT7=
EXTT8=
EXTT9=
PLAYORDER=
